[URL=http://pix2links.com][img]http://www.pix2links.com/images/92681793056691238192.png[/img][/URL]

 [URL=http://pix2links.com][img]http://www.pix2links.com/images/31308943075612089712.png[/img][/URL]

General
Complete name                    : E:\Pokemon.S14E01.WS.PDTV.XviD-aAF\aaf-pokemon.s14e01.ws.pdtv.xvid.avi
Format                           : AVI
Format/Info                      : Audio Video Interleave
File size                        : 174 MiB
Duration                         : 20mn 28s
Overall bit rate                 : 1 190 Kbps
Writing application              : VirtualDubMod 1.5.10.2 (build 2540/release)
Writing library                  : VirtualDubMod build 2540/release

Video
ID                               : 0
Format                           : MPEG-4 Visual
Format profile                   : Advanced Simple@L5
Format settings, BVOP            : 2
Format settings, QPel            : No
Format settings, GMC             : No warppoints
Format settings, Matrix          : Default (H.263)
Codec ID                         : XVID
Codec ID/Hint                    : XviD
Duration                         : 20mn 28s
Bit rate                         : 1 049 Kbps
Width                            : 624 pixels
Height                           : 352 pixels
Display aspect ratio             : 16:9
Frame rate                       : 25.000 fps
Color space                      : YUV
Chroma subsampling               : 4:2:0
Bit depth                        : 8 bits
Scan type                        : Progressive
Compression mode                 : Lossy
Bits/(Pixel*Frame)               : 0.191
Stream size                      : 154 MiB (88%)
Writing library                  : XviD 64

Audio
ID                               : 1
Format                           : MPEG Audio
Format version                   : Version 1
Format profile                   : Layer 3
Mode                             : Joint stereo
Codec ID                         : 55
Codec ID/Hint                    : MP3
Duration                         : 20mn 28s
Bit rate mode                    : Variable
Bit rate                         : 128 Kbps
Channel(s)                       : 2 channels
Sampling rate                    : 48.0 KHz
Compression mode                 : Lossy
Stream size                      : 18.8 MiB (11%)
Alignment                        : Aligned on interleaves
Interleave, duration             : 24 ms (0.60 video frame)
Interleave, preload duration     : 518 ms
Writing library                  : LAME3.90.
Encoding settings                : -m j -V 4 -q 2 -lowpass 17.6 --abr 128

[URL=http://pix2links.com][img]http://www.pix2links.com/images/83982669399534792147.png[/img][/URL]
        [URL=http://pix2links.com][img]http://www.pix2links.com/images/77379136595727848647.png[/img][/URL]
        [URL=http://pix2links.com][img]http://www.pix2links.com/images/51113851090012695035.png[/img][/URL]
        [URL=http://pix2links.com][img]http://www.pix2links.com/images/09902902200221941410.png[/img][/URL]

Enjoy guysss :P